# xmcd
#
# Track frame offsets: 
#        187
#        22060
#        39812
#        56137
#        75250
#        99550
#        113122
#        130862
#        146552
#        161272
#
# Disc length: 2342 seconds
#
# Revision: 3
# Processed by: cddbd v1.5PL3 Copyright (c) Steve Scherf et al.
# Submitted via: ExactAudioCopy v0.95a3
#
DISCID=7609240a
DTITLE=The Judds - Love Can Build A Bridge
DYEAR=1990
DGENRE=country
TTITLE0=Born To Be Blue
TTITLE1=Calling In The Wind
TTITLE2=In My Dreams
TTITLE3=Rompin' Stompin' Blues
TTITLE4=Love Can Build A Bridge
TTITLE5=This Country's Rockin'
TTITLE6=One Hundred And Two
TTITLE7=John Deere Tractor
TTITLE8=Talk About Love
TTITLE9=Are The Roses Not Blooming
EXTD=
EXTT0=
EXTT1=
EXTT2=
EXTT3=
EXTT4=
EXTT5=
EXTT6=
EXTT7=
EXTT8=
EXTT9=
PLAYORDER=
